<?xml-stylesheet type="text/css" href="../blocks.css" ?>

<svg xmlns="http://www.w3.org/2000/svg" viewBox="0 0 250 50" width="250" height="50">

    <g>
        <path class="heater-element outer" d="M199.68,25.13h-37.5c-8.75,0-9.25-9-18.75-9H34.06s-9.37,0-9.37,9.38c0,9.63,9.37,9.38,9.37,9.38H143.43"/>
        <path class="heater-element inner" d="M199.68,25.13h-37.5c-8.75,0-9.25-9-18.75-9H34.06s-9.37,0-9.37,9.38c0,9.63,9.37,9.38,9.37,9.38H143.43"/>
    </g>

    <g>
        <path class="heater-element outer" d="M239.68,42.14H202.62V7.86h37.06a5,5,0,0,1,5,5V37.14A5,5,0,0,1,239.68,42.14Z"/>
        <path class="heater-power_off" d="M204.62,40.14V9.86h35.06a3,3,0,0,1,3,3V37.14a3,3,0,0,1-3,3H204.62Z"/>
        <text class="heater-percent" transform="translate(223 30)" text-anchor="middle">0%</text>
    </g>

</svg>
