<svg version="1.1" xmlns="http://www.w3.org/2000/svg" x="0px" y="0px" viewBox="0 0 150 450" width="150" height="450">

<g class="lines">
  <polygon points="1,50 1,250 10.4,250 10.4,200 22.3,183 34.1,183 34.1,250 115.9,250 115.9,183 127.7,183 139.5,200
  139.5,250 149,250 149,50 	"/>
  <path d="M67,370v11.9l5.3,5.1H80v4h-9.4l-3.6-3.4v9.6c2-1.6,4.7-2.5,7.5-2.5s5.5,0.9,7.5,2.5V370H67z"/>
  <rect x="70.6" y="391" width="8.6" height="3.9"/>
  <path d="M83.3,409.8c0.3-0.8,0.4-1.7,0.4-2.6s-0.1-1.8-0.4-2.6c1.1-0.7,1.8-1.9,1.8-3.4c0-2.2-1.8-4-4-4
  c-1.4,0-2.6,0.7-3.4,1.8c-0.8-0.3-1.7-0.4-2.6-0.4s-1.8,0.1-2.6,0.4c-0.7-1.1-1.9-1.8-3.4-1.8c-2.2,0-4,1.8-4,4
  c0,1.4,0.7,2.6,1.8,3.4c-0.3,0.8-0.4,1.7-0.4,2.6s0.1,1.8,0.4,2.6c-1.1,0.7-1.8,1.9-1.8,3.4c0,2.2,1.8,4,4,4
  c1.4,0,2.6-0.7,3.4-1.8c0.8,0.3,1.7,0.4,2.6,0.4s1.8-0.1,2.6-0.4c0.7,1.1,1.9,1.8,3.4,1.8c2.2,0,4-1.8,4-4
  C85.1,411.8,84.4,410.5,83.3,409.8z"/>
  <circle cx="74.8" cy="407.2" r="5"/>
  <path d="M85,388v4l2,4.7v5.3h5v-5.3l2-5.2V388C94,388,89.8,385,85,388z"/>
  <circle cx="89.5" cy="391" r="1.9"/>
  <path d="M86.1,402c0.6,1,1,3,1.1,4H93v-4H86.1z"/>
  <path d="M87.1,409c-0.2,2-0.7,3-1.4,4H93v-4H87.1z"/>
  <circle cx="74.8" cy="407.2" r="12.5"/>
  <path d="M72.3,387l-6.3-6H48c0,0-1.9-0.2-1.9,2.1c0,2.1,2.1,1.9,2.1,1.9h16l6.3,6H80v-4H72.3z"/>
  <rect x="62.5" y="363" width="24.8" height="7"/>

  <polygon points="10.4,250 1,250 10.4,267.1"/>
  <path d="M116.4,250H33.5v55.5L47.7,330c0.2,0,0.3,0,0.3,0h18l6.3,4H80v6h-9.4l-6.3-4H51.3l16.2,27H82l34.4-57.4V250z"/>
  <polygon points="139.5,250 139.5,267.1 149,250"/>

  <path d="M87.3,333.6v-3.9c0-4.1-5.6-7.5-12.5-7.5s-12.5,3.4-12.5,7.5"/>
  <ellipse cx="75" cy="347.2" rx="4" ry="2"/>
  <path d="M85.1,336.4c0-0.1,0.1-0.1,0.1-0.3l-0.1-4.1c0-1.1-1.8-1.9-4-1.9c-1.4,0-2.6,0.4-3.3,0.9
  c-0.8-0.1-1.7-0.2-2.6-0.2s-1.8,0.1-2.6,0.2c-0.7-0.5-2-0.9-3.4-0.9c-0.8,0-1.5,0.1-2.2,0.3l5.4,3.4H80v6h-9.4l-5.6-3.5v3.5l0,0
  c0,0.1,0,0.2,0,0.2v3.8l0.2,0c0,0.1,0,0.2,0,0.2c0,0.7,0.7,1.3,1.8,1.7c-0.3,0.4-0.4,0.9-0.4,1.3c0,0.5,0.1,0.9,0.4,1.3
  c-1.1,0.4-1.8,1-1.8,1.7c0,1.1,1.8,2,4,2c1.4,0,2.6-0.4,3.4-0.9c0.8,0.1,1.7,0.2,2.6,0.2s1.8-0.1,2.6-0.2c0.7,0.5,1.9,0.9,3.4,0.9
  c2.2,0,4-0.9,4-2c0-0.7-0.7-1.3-1.8-1.7c0.3-0.4,0.4-0.9,0.4-1.3c0-0.5-0.1-0.9-0.4-1.3c1.1-0.4,1.8-1,1.8-1.7l0-1.9
  c0,0,0-0.1,0-0.1c0-0.1,0-0.3,0-0.4l0-1.8h0.1L85.1,336.4z"/>
  <path d="M74.8,326.1c-4.7,0-8.9,1.6-11,3.9H66l6.3,4H80v6h-9.4l-6.3-4h-1.3c1.7,3,6.3,5.1,11.8,5.1
  c6.9,0,12.5-3.4,12.5-7.5S81.7,326.1,74.8,326.1z"/>
  <path d="M72.3,334l-6.3-4H48c0,0-2.8,0.2-2.8,3.2c0,3,3.1,2.8,3.1,2.8h16l6.3,4H80v-6H72.3z"/>

  <path d="M25,50c0,0,8.7-17,50-17s50,17,50,17H25z"/>
  <rect x="67.5" y="20.6" width="15" height="12.4"/>

  <rect x="10.4" y="200" width="11.9" height="226"/>
  <polygon points="33.5,426 22.4,426 22.4,200 33.5,183 		"/>
  <rect x="10.4" y="440.7" width="23.1" height="8.7"/>
  <polygon points="33.5,440.7 10.4,440.7 17.4,434 26.5,434 		"/>
  <rect x="19.4" y="426" width="5" height="8"/>

  <rect x="127.6" y="200" width="11.9" height="226"/>
  <polygon points="116.4,426 127.6,426 127.6,200 116.4,183 		"/>
  <rect x="116" y="440.7" width="23.1" height="8.7"/>
  <polygon points="139.1,440.7 116,440.7 123,434 132.1,434 		"/>
  <rect x="125" y="426" width="5" height="8"/>
</g>

<text class="fridgetext" transform="translate(100 80)">20°</text>
<text class="temp" transform="translate(70 120)">20°</text>

</svg>
