<svg version="1.1" x="0px" y="0px" viewBox="0 0 200 100">
  <path d="M200,29h-50c-0.3,0-27.6,0-49.8,1l-9.1,0.8"/>
  <path d="M49.6,26.6L99.8,22c22.3-1,49.9-1,50.2-1h50"/>
  <path d="M49.6,46l59-5.4"/>
  <path d="M150.4,44.8l-59.1,5.4"/>
  <path d="M49.6,65.4l59-5.4"/>
  <path d="M150.4,64.3l-56.4,5.2"/>
  <path d="M150,64.3c-0.1,0-0.3,0-0.4,0L49.6,54c-2.2-0.2-3.8-2.2-3.6-4.4c0.2-2,1.9-3.6,4-3.6c0.1,0,0.3,0,0.4,0 l100,10.3c1.1,0.1,2,0.6,2.7,1.5c0.7,0.8,1,1.9,0.9,2.9C153.8,62.7,152.1,64.3,150,64.3z"/>
  <path d="M150,44.9c-0.1,0-0.3,0-0.4,0l-100-10.3c-2.2-0.2-3.8-2.2-3.6-4.4c0.2-2,1.9-3.6,4-3.6c0.1,0,0.3,0,0.4,0 l100,10.3c2.2,0.2,3.8,2.2,3.6,4.4C153.8,43.3,152.1,44.9,150,44.9z"/>
  <path d="M200,79h-50c-0.3,0-27.8,0-50.2-1c-0.1,0-0.1,0-0.2,0l-50-4.6c-2.2-0.2-3.8-2.2-3.6-4.3c0.2-2.1,1.9-3.6,4-3.6 c0.1,0,0.3,0,0.4,0l49.9,4.6c22.1,1,49.4,1,49.7,1h50"/>
</svg>