<svg x="0px" y="0px" viewBox="0 0 150.1 100" width="150" height="100">
		<path d="M0,21h5.3c2.9,0,6.9,2.2,8.8,4.8l2.7,3.6c2,2.6,4.6,4.8,5.8,4.8h2.3"/>
		<path d="M0,29h2.8c1.5,0,4.4,2.2,6.3,4.8l2.7,3.6c2,2.6,5.9,4.8,8.8,4.8h5.3"/>
		<path d="M150,21h-5.3c-2.9,0-6.9,2.2-8.8,4.8l-2.7,3.6c-2,2.6-4.6,4.8-5.8,4.8h-2.3"/>
		<path d="M150,29h-2.8c-1.5,0-4.4,2.2-6.3,4.8l-2.7,3.6c-2,2.6-5.9,4.8-8.8,4.8h-5.3"/>
		<path d="M25.9,57.8h-5.8c-3.6,0.2-7,2-9.3,4.8l-2.7,3.6c-2,2.6-4.6,4.8-5.8,4.8H0"/>
		<path d="M24.9,65.8h-2.8c-1.5,0-4.4,2.2-6.3,4.8l-2.7,3.6c-2,2.6-5.7,4.8-8.3,4.8H0"/>
		<path d="M124.2,57.8h5.8c3.6,0.2,7,2,9.3,4.8l2.7,3.6c2,2.6,4.6,4.8,5.8,4.8h2.2"/>
		<path d="M125.2,65.8h2.8c1.5,0,4.4,2.2,6.3,4.8l2.7,3.6c2,2.6,5.7,4.8,8.3,4.8h4.7"/>
		<path d="M37.5,25h75c6.9,0,12.5,5.6,12.5,12.5l0,0c0,6.9-5.6,12.5-12.5,12.5h-75C30.6,50,25,44.4,25,37.5 l0,0C25,30.6,30.6,25,37.5,25z"/>
		<path d="M37.5,50h75c6.9,0,12.5,5.6,12.5,12.5l0,0c0,6.9-5.6,12.5-12.5,12.5h-75C30.6,75,25,69.4,25,62.5 l0,0C25,55.6,30.6,50,37.5,50z"/>
</svg>
