<?xml-stylesheet type="text/css" href="../blocks.css" ?>
<?xml-stylesheet type="text/css" href="../liquid.css" ?>
<svg xmlns="http://www.w3.org/2000/svg" viewBox="0 0 50 50" width="50" height="50">

    <line class="liquid" y1="25" x2="50" y2="25"/>

    <circle class="liquidfill" cx="25" cy="25" r="15"/>

    <g class="lines">
        <line x1="39.5" y1="21" x2="50" y2="21"/>
        <line x1="39.5" y1="29" x2="50" y2="29"/>
        <line y1="21" x2="10.5" y2="21"/>
        <line y1="29" x2="10.5" y2="29"/>
    </g>

    <path class="checkarrow" d="M22.81,22l-2.38-2.38a3,3,0,0,1,4.24-4.24L31.3,22h8.4a15,15,0,0,0-29.4,0H22.81Z"/>
    <path class="checkarrow" d="M31.3,28l-6.62,6.62a3,3,0,0,1-4.24-4.24L22.81,28H10.3a15,15,0,0,0,29.4,0H31.3Z"/>

</svg>
