<?xml-stylesheet type="text/css" href="../blocks.css" ?>
<?xml-stylesheet type="text/css" href="../liquid.css" ?>
<svg xmlns="http://www.w3.org/2000/svg" viewBox="0 0 50 50" width="50" height="50">

  <line class="liquid" y1="25" x2="10" y2="25"/>
  <line class="liquid hidden" x1="40" y1="25" x2="50" y2="25"/>

    <g class="lines">
        <line x1="39.5" y1="21" x2="50" y2="21"/>
        <line x1="39.5" y1="29" x2="50" y2="29"/>
        <line y1="21" x2="10.5" y2="21"/>
        <line y1="29" x2="10.5" y2="29"/>
    </g>

    <g class="ball halfopen">
        <path d="M39.7,22a15,15,0,0,0-29.4,0H39.7Z"/>
        <path d="M10.31,28a15,15,0,0,0,29.37,0H10.31Z"/>
    </g>

    <g class="lines">
        <path d="M39.42,21A15,15,0,0,0,10.5,21"/>
        <path d="M10.51,29a15,15,0,0,0,28.89,0"/>
    </g>

    <g class="motor">
        <circle class="ball" cx="42" cy="8" r="8"/>
        <path class="power halfopen" d="M44.64,2.46a32.73,32.73,0,0,1-2.27,3.21c-0.4.51-.82,1-1.23,1.51s-0.86,1-1.29,1.45L39.19,7q2.73-.12,5.45,0L47,7.13,45.3,8.63c-0.48.43-1,.86-1.44,1.28s-1,.83-1.49,1.23a32.27,32.27,0,0,1-3.18,2.25,32.29,32.29,0,0,1,2.27-3.17c0.4-.51.82-1,1.23-1.49s0.86-1,1.29-1.43l0.66,1.6q-2.73.12-5.45,0l-2.33-.1,1.66-1.5C39,6.87,39.47,6.43,40,6s1-.84,1.49-1.25A32.71,32.71,0,0,1,44.64,2.46Z"/>
    </g>

</svg>
