<svg x="0px" y="0px" viewBox="0 0 150 100">

<path d="M86.4,40.6l59,5.4"/>
<path d="M103.7,50.2l-59.1-5.4"/>
<path d="M86.4,60l59,5.4"/>
<path d="M101,69.5l-56.4-5.2"/>
<path d="M41,60.7c-0.1-1,0.2-2.1,0.9-2.9c0.7-0.9,1.6-1.4,2.7-1.5l100-10.3c0.1,0,0.3,0,0.4,0c2.1,0,3.8,1.6,4,3.6 c0.2,2.2-1.4,4.2-3.6,4.4l-100,10.3c-0.1,0-0.3,0-0.4,0C42.9,64.3,41.2,62.7,41,60.7z"/>
<path d="M41,41.3c-0.2-2.2,1.4-4.2,3.6-4.4l100-10.3c0.1,0,0.3,0,0.4,0c2.1,0,3.8,1.6,4,3.6c0.2,2.2-1.4,4.2-3.6,4.4 l-100,10.3c-0.1,0-0.3,0-0.4,0C42.9,44.9,41.2,43.3,41,41.3z"/>

<path id="line_3_" class="st0" d="M21,0v70c0,4.9,4.1,9,9,9h20c0.3,0,22.8,0,45.2-1c0.1,0,0.1,0,0.2,0l50-4.6 c2.8-0.3,4.7-3.5,2.9-6.1c-0.8-1.2-2.1-1.8-3.5-1.8l-0.2,0l-49.9,4.6c-22.1,1-44.7,1-44.7,1H32c-1.7,0-3-1.3-3-3V0"/>

<path d="M71,0v20c0,5,4,9,9,9h20c2.6,0,11.8,1,11.8,1"/>
<path d="M79,0v18c0,1.7,1.3,3,3,3h18c8.3,0,45.4,5.6,45.4,5.6"/>

</svg>
