<?xml-stylesheet type="text/css" href="../blocks.css" ?>

<svg version="1.1" xmlns="http://www.w3.org/2000/svg" viewBox="0 0 250 600" width="250" height="600">

	<rect class="lines" x="1" y="1" width="248" height="597"/>

	<g id="br">

			<circle class="lines" cx="125.6" cy="551" r="15"/>

			<g class="solid">
				<path
					d="M121,558c0,0,0.1-0.2,0.3-0.6c0.2-0.4,0.4-0.9,0.5-1.5c0.1-0.3,0.1-0.6,0-1c0-0.1,0-0.2,0-0.2
				l-0.1-0.3c-0.1-0.2-0.1-0.3-0.2-0.5c-0.1-0.4-0.3-0.8-0.4-1.2c-0.2-0.4-0.3-0.9-0.5-1.3c-0.3-0.9-0.6-1.8-0.8-2.7
				c-0.1-0.5-0.1-0.9-0.1-1.5c0-0.5,0.2-1,0.3-1.3c0.3-0.7,0.7-1.2,1-1.5c0.3-0.3,0.5-0.5,0.5-0.5s0,0.2-0.1,0.7
				c-0.1,0.4-0.2,1-0.2,1.7c0,0.3,0,0.6,0,1c0.1,0.3,0.2,0.7,0.3,1.1c0.3,0.8,0.6,1.7,1,2.5c0.3,0.9,0.6,1.8,0.8,2.8
				c0,0.2,0.1,0.5,0.1,0.8l0,0.3c0,0.2,0,0.3,0,0.4c-0.1,0.5-0.3,0.9-0.5,1.3c-0.4,0.7-0.9,1.1-1.3,1.4C121.2,558,121,558,121,558z"/>
				<path
					d="M124.6,559.5c0,0,0.1-0.3,0.3-0.8c0.2-0.5,0.4-1.2,0.7-2c0.1-0.4,0.2-0.8,0.3-1.3
				c0.1-0.5,0-0.8-0.1-1.3c-0.1-0.4-0.3-0.9-0.5-1.4c-0.2-0.5-0.4-1.1-0.6-1.6c-0.4-1.1-0.8-2.2-0.9-3.4c0-0.2,0-0.3,0-0.5l0-0.3
				l0-0.2c0-0.2,0.1-0.7,0.2-0.9c0.2-0.5,0.4-1,0.7-1.4c0.5-0.8,1-1.3,1.4-1.7c0.4-0.4,0.6-0.6,0.6-0.6s-0.1,0.3-0.3,0.8
				c-0.2,0.5-0.4,1.2-0.7,2c-0.1,0.4-0.2,0.8-0.3,1.3c0,0.3,0,0.3,0,0.6l0,0.2c0,0,0,0.1,0,0.1c0,0.1,0,0.2,0.1,0.3
				c0.2,0.9,0.7,2,1.1,3c0.2,0.5,0.4,1.1,0.6,1.7c0.2,0.6,0.3,1.1,0.4,1.8c0,0.2,0,0.3,0,0.5l0,0.2l0,0.2c0,0.3-0.1,0.6-0.2,0.9
				c-0.2,0.5-0.4,1-0.7,1.4c-0.5,0.8-1,1.3-1.4,1.7C124.8,559.3,124.6,559.5,124.6,559.5z"/>

				<path
					d="M129.7,558c0,0,0.1-0.2,0.1-0.7c0.1-0.4,0.2-1,0.2-1.6c0-0.3,0-0.7-0.1-1
				c-0.1-0.5-0.2-0.7-0.3-1.1c-0.3-0.8-0.6-1.7-1-2.5c-0.3-0.9-0.6-1.8-0.8-2.8c-0.1-0.5-0.1-1,0-1.5c0.1-0.6,0.4-1,0.6-1.3
				c0.4-0.6,0.9-1,1.2-1.3c0.3-0.3,0.6-0.4,0.6-0.4s-0.1,0.2-0.2,0.6c-0.1,0.4-0.4,1-0.5,1.6c-0.1,0.3-0.2,0.7-0.1,0.9
				c0,0.3,0.1,0.6,0.3,1c0.1,0.4,0.3,0.8,0.5,1.2c0.2,0.4,0.3,0.9,0.5,1.3c0.2,0.4,0.3,0.9,0.4,1.4c0.1,0.5,0.2,0.9,0.3,1.4
				c0.1,0.4,0.1,1.1,0.1,1.4c0,0.5-0.2,0.9-0.3,1.3c-0.3,0.7-0.7,1.3-0.9,1.6C129.9,557.9,129.7,558,129.7,558z"/>
			</g>

			<rect class="lines" x="102.3" y="526" width="148.7" height="75"/>
			<text class="fridgetext" text-anchor="end" transform="translate(190 560)">55%</text>
		</g>

		<g id="bl">
			<g class="lines">
				<line x1="13" y1="558.5" x2="26.1" y2="550.9"/>
				<line x1="13.1" y1="553.2" x2="18.3" y2="555.4"/>
				<line x1="12.6" y1="543.1" x2="25.8" y2="550.7"/>
				<line x1="12.9" y1="548.2" x2="18.1" y2="546.3"/>
				<line x1="17.2" y1="540.6" x2="17.8" y2="546.2"/>
				<line x1="25.4" y1="535.5" x2="25.4" y2="550.5"/>
				<line x1="21.4" y1="537.9" x2="25.6" y2="541.5"/>
				<line x1="30.1" y1="538.5" x2="25.6" y2="541.9"/>
				<line x1="39.1" y1="543.1" x2="25.9" y2="550.7"/>
				<line x1="34.5" y1="540.8" x2="33.6" y2="546.3"/>
				<line x1="39" y1="548.3" x2="33.8" y2="546.1"/>
				<line x1="39.4" y1="558.5" x2="27.3" y2="551.5"/>
				<line x1="39.4" y1="552.8" x2="34.2" y2="554.7"/>
				<line x1="35" y1="560.1" x2="34.4" y2="554.5"/>
				<line x1="25.4" y1="565.5" x2="25.4" y2="550.5"/>
				<line x1="29.9" y1="562.8" x2="25.6" y2="559.2"/>
				<line x1="21.1" y1="562.9" x2="25.6" y2="559.5"/>
				<line x1="12.6" y1="558.3" x2="25.6" y2="550.8"/>
				<line x1="16.7" y1="560.6" x2="17.7" y2="555.1"/>
			</g>
			<g class="solid">
				<path d="M22.5,581c0,2.8-2.2,5-5,5s-5-2.2-5-5s5-10,5-10S22.5,578.2,22.5,581z"/>
				<path d="M37.5,581c0,2.8-2.2,5-5,5s-5-2.2-5-5s5-10,5-10S37.5,578.2,37.5,581z"/>
			</g>
			<rect class="lines" x="1" y="526" width="101.3" height="75"/>
			<text class="fridgetext" text-anchor="end" transform="translate(90 560)">22%</text>
		</g>

		<text class="temp"  text-anchor="end" transform="translate(235 100)">20°</text>

		<g transform="translate(0 50)">
			<path class="solid" d="M0,0v50h25c13.8,0,25-11.2,25-25V0H0z M25,46.5C13.1,46.5,3.5,36.9,3.5,25
				C3.5,13.1,13.1,3.5,25,3.5S46.5,13.1,46.5,25C46.5,36.9,36.9,46.5,25,46.5z"/>

			<g class="solid rotate_fast">
				<path d="M25,25c0,0-22.7-4.7-15.9-9.2C17,10.5,25,25,25,25z"/>
				<path d="M25,25c0,0-15.4,17.3-15.9,9.2C8.5,24.7,25,25,25,25z"/>
				<path d="M25,25.1c0,0,7.2,22,0,18.4C16.5,39.2,25,25.1,25,25.1z"/>
				<path d="M25.1,25.1c0,0,22.7,4.7,15.9,9.2C33.1,39.5,25.1,25.1,25.1,25.1z"/>
				<path d="M25.1,25.1c0,0,15.4-17.3,15.9-9.2C41.6,25.3,25.1,25.1,25.1,25.1z"/>
				<path d="M25.1,25c0,0-7.2-22,0-18.4C33.6,10.8,25.1,25,25.1,25z"/>
			</g>

			<g class="motor">
				<circle class="ball" cx="25" cy="25" r="8"/>
				<path
					class="poweron"
					d="M27.64,19.46a32.71,32.71,0,0,1-2.27,3.21c-0.4.51-.82,1-1.23,1.51s-0.86,1-1.29,1.45L22.19,24q2.73-.12,5.45,0L30,24.13l-1.69,1.5c-0.48.43-1,.86-1.44,1.28s-1,.83-1.49,1.23a32.29,32.29,0,0,1-3.18,2.25,32.28,32.28,0,0,1,2.27-3.17c0.4-.51.82-1,1.23-1.49s0.86-1,1.29-1.43l0.66,1.6q-2.73.12-5.45,0l-2.33-.1,1.66-1.5c0.48-.43,1-0.87,1.44-1.3s1-.84,1.49-1.25A32.71,32.71,0,0,1,27.64,19.46Z"/>
			</g>
		</g>

		<g id="top">

			<rect class="lines" x="1" y="1" width="250" height="50"/>
			<text class="fridgetext" text-anchor="end" transform="translate(235 33)">20°</text>
			<text class="fridgetext" transform="translate(10 33)">Fridge #2</text>
		</g>
	</svg>
