<?xml-stylesheet type="text/css" href="../blocks.css" ?>
<?xml-stylesheet type="text/css" href="../liquid.css" ?>
<svg xmlns="http://www.w3.org/2000/svg" viewBox="0 0 50 50" width="50" height="50">

  <g class="liquid">
		<path d="M0,25h25V0"/>
		<path d="M25,0v25h25"/>
		<path d="M25,50V25H0"/>
		<path d="M50,25H25v25"/>
	</g>


  <g class="arrows">
      <polyline class="arrow north out" points="21 14.5 25 10.5 29 14.5"/>
      <polyline class="arrow east in" points="35.5 21 39.5 25 35.5 29"/>
      <polyline class="arrow south out" points="29 35.5 25 39.5 21 35.5"/>
      <polyline class="arrow west out" points="14.5 21 10.5 25 14.5 29"/>
  </g>


    <g class="lines">
        <polyline points="50 21 29 21 29 0"/>
        <polyline points="21 0 21 21 0 21"/>
        <polyline points="0 29 21 29 21 50"/>
        <polyline points="29 50 29 29 50 29"/>
    </g>


</svg>
