<?xml-stylesheet type="text/css" href="../blocks.css" ?>
<svg xmlns="http://www.w3.org/2000/svg" viewBox="0 0 50 50" width="50" height="50">

    <circle class="lines" cx="25" cy="25" r="23"/>

    <g class="lines">
      <path d="M6.27,18.24c2.25,7.68,11.62,14.6,18.73,7"/>
      <path d="M32,6.52c-7.68,2.25-14.6,11.62-7,18.73"/>
      <path d="M43.73,32.26c-2.25-7.68-11.62-14.6-18.73-7"/>
      <path d="M18,44s0.85-.29,2.18-0.86C27,40.51,31.65,30.3,25,25.25"/>
      <path d="M16.72,7C13,13.93,15.64,25.16,25,25.25"/>
      <path d="M43.2,17s-0.81-.4-2.15-0.93c-6.51-2.59-16.24.6-16.05,9.21"/>
      <path d="M33.28,43.45s0.4-.81.93-2.15c2.59-6.51-.6-16.24-9.21-16.05"/>
      <path d="M6.8,33.53s0.81,0.4,2.15.93c6.51,2.59,16.24-.6,16.05-9.21"/>
    </g>

</svg>
