<svg x="0px" y="0px" viewBox="0 0 100 100">
<path d="M41.1,40.2L95.4,46"/>
<path d="M21,45.6L4.6,43.9"/>
<path d="M59.2,49.7L29,46.5"/>
<path d="M42.3,59.5l52.9,6"/>
<path d="M21,65.1L4.6,63.4"/>
<path d="M63,69.6L29,66"/>
<path d="M71,0v17.5c0,4.9,3.1,9.1,8.5,10.7"/>
<path d="M78.8,0v16.5c0,3,1,3.8,2.7,4.5c1.2,0.5,14.9,5.8,14.9,5.8"/>
<path d="M29,33.4V0"/>
<path d="M29,52.8V41.4"/>
<path d="M21,61.7V70c0,4.9,4,9,9,9h10.3c14.4,0,30.8-2.5,30.8-2.5l24.2-3.1c2.8-0.3,4.7-3.5,2.9-6.1 c-0.8-1.2-2.1-1.8-3.5-1.8h-0.2l-23.8,3.3c0,0-16.3,2.3-26.1,2.3H30c-0.6,0-1-0.4-1-1v-9.2"/>
<path d="M21,42.2v11.4"/>
<path d="M21,0v34.2"/>
<path d="M4.9,63.4c-2.1,0-3.8-1.6-4-3.6c-0.1-1,0.2-2.1,0.9-2.9c0.7-0.9,1.6-1.4,2.7-1.5L94.6,46c0.1,0,0.3,0,0.4,0 c2.1,0,3.8,1.6,4,3.6c0.2,2.2-1.4,4.2-3.6,4.4L4.9,63.4z"/>
<path d="M4.9,43.9c-2.1,0-3.8-1.6-4-3.6c-0.2-2.2,1.4-4.2,3.6-4.4l90.1-9.3c0.1,0,0.3,0,0.4,0c2.1,0,3.8,1.6,4,3.6 c0.2,2.2-1.4,4.2-3.6,4.4L4.9,43.9z"/>
</svg>
