<svg viewBox="0 0 50 50" width="50" height="50">
	<line x1="25" y1="2.6" x2="25" y2="32.6"/>
	<polyline points="20.7,4.6 25,9.3 29.3,4.6 "/>
	<polyline points="29.3,30.6 25,25.9 20.7,30.6 "/>
	<line x1="12" y1="10.1" x2="38" y2="25.1"/>
	<polyline points="11.6,14.8 17.8,13.4 15.9,7.4 "/>
	<polyline points="38.4,20.4 32.2,21.8 34.1,27.8 "/>
	<line x1="12" y1="25.1" x2="38" y2="10.1"/>
	<polyline points="15.9,27.8 17.8,21.8 11.6,20.4 "/>
	<polyline points="34.1,7.4 32.2,13.4 38.4,14.8 "/>
	<path d="M22.5,45c0,2.8-2.2,5-5,5s-5-2.2-5-5s5-10,5-10S22.5,42.2,22.5,45z"/>
	<path d="M37.5,45c0,2.8-2.2,5-5,5c-2.8,0-5-2.2-5-5s5-10,5-10S37.5,42.2,37.5,45z"/>
</svg>
