<?xml-stylesheet type="text/css" href="../blocks.css" ?>

<svg xmlns="http://www.w3.org/2000/svg" viewBox="0 0 200 50" width="200" height="50" >

      <path class="solid" d="M175,10v8h6.5c4.69,0,7.5,3.09,7.5,7.78A7.35,7.35,0,0,1,181.5,33H175v7h19V10H175Z"/>
      <g class="lines">
        <path d="M18.5,32.81a7.52,7.52,0,0,1-7.5-7.5h0a7.52,7.52,0,0,1,7.5-7.5"/>
        <path d="M22.61,32.81a7.52,7.52,0,0,1-7.5-7.5h0a7.52,7.52,0,0,1,7.5-7.5"/>
        <path d="M26.72,32.81a7.52,7.52,0,0,1-7.5-7.5h0a7.52,7.52,0,0,1,7.5-7.5"/>
        <path d="M30.83,32.81a7.52,7.52,0,0,1-7.5-7.5h0a7.52,7.52,0,0,1,7.5-7.5"/>
        <path d="M34.94,32.81a7.52,7.52,0,0,1-7.5-7.5h0a7.52,7.52,0,0,1,7.5-7.5"/>
        <path d="M39.06,32.81a7.52,7.52,0,0,1-7.5-7.5h0a7.52,7.52,0,0,1,7.5-7.5"/>
        <path d="M43.17,32.81a7.52,7.52,0,0,1-7.5-7.5h0a7.52,7.52,0,0,1,7.5-7.5"/>
        <path d="M47.28,32.81a7.52,7.52,0,0,1-7.5-7.5h0a7.52,7.52,0,0,1,7.5-7.5"/>
        <path d="M51.39,32.81a7.52,7.52,0,0,1-7.5-7.5h0a7.52,7.52,0,0,1,7.5-7.5"/>
        <path d="M55.5,32.81a7.52,7.52,0,0,1-7.5-7.5h0a7.52,7.52,0,0,1,7.5-7.5"/>
        <path d="M60.44,32.81c-3.67,0-6.67-3.37-6.67-7.5h0c0-4.12,3-7.5,6.67-7.5"/>
        <path d="M65.39,32.81c-3.21,0-5.83-3.37-5.83-7.5h0c0-4.12,2.62-7.5,5.83-7.5"/>
        <path d="M70.33,32.81c-2.75,0-5-3.37-5-7.5h0c0-4.12,2.25-7.5,5-7.5"/>
        <path d="M75.28,32.81c-2.29,0-4.17-3.37-4.17-7.5h0c0-4.12,1.87-7.5,4.17-7.5"/>
        <path d="M80.22,32.81c-1.83,0-3.33-3.37-3.33-7.5h0c0-4.12,1.5-7.5,3.33-7.5"/>
        <path d="M85.17,32.81c-1.37,0-2.5-3.37-2.5-7.5h0c0-4.12,1.12-7.5,2.5-7.5"/>
        <path d="M90.11,32.81c-0.92,0-1.67-3.37-1.67-7.5h0c0-4.12.75-7.5,1.67-7.5"/>
        <path d="M95.06,32.81c-0.46,0-.83-3.37-0.83-7.5h0c0-4.12.37-7.5,0.83-7.5"/>
        <path d="M100,33V25.31h0V18"/>
        <path d="M104.94,17.81c0.46,0,.83,3.37.83,7.5h0c0,4.12-.37,7.5-0.83,7.5"/>
        <path d="M109.89,17.81c0.92,0,1.67,3.37,1.67,7.5h0c0,4.12-.75,7.5-1.67,7.5"/>
        <path d="M114.83,17.81c1.37,0,2.5,3.37,2.5,7.5h0c0,4.12-1.12,7.5-2.5,7.5"/>
        <path d="M119.78,17.81c1.83,0,3.33,3.37,3.33,7.5h0c0,4.12-1.5,7.5-3.33,7.5"/>
        <path d="M124.72,17.81c2.29,0,4.17,3.37,4.17,7.5h0c0,4.12-1.87,7.5-4.17,7.5"/>
        <path d="M129.67,17.81c2.75,0,5,3.37,5,7.5h0c0,4.12-2.25,7.5-5,7.5"/>
        <path d="M134.61,17.81c3.21,0,5.83,3.37,5.83,7.5h0c0,4.12-2.62,7.5-5.83,7.5"/>
        <path d="M139.56,17.81c3.67,0,6.67,3.37,6.67,7.5h0c0,4.12-3,7.5-6.67,7.5"/>
        <path d="M144.5,17.81a7.52,7.52,0,0,1,7.5,7.5h0a7.52,7.52,0,0,1-7.5,7.5"/>
        <path d="M148.61,17.81a7.52,7.52,0,0,1,7.5,7.5h0a7.52,7.52,0,0,1-7.5,7.5"/>
        <path d="M152.72,17.81a7.52,7.52,0,0,1,7.5,7.5h0a7.52,7.52,0,0,1-7.5,7.5"/>
        <path d="M156.83,17.81a7.52,7.52,0,0,1,7.5,7.5h0a7.52,7.52,0,0,1-7.5,7.5"/>
        <path d="M160.94,17.81a7.52,7.52,0,0,1,7.5,7.5h0a7.52,7.52,0,0,1-7.5,7.5"/>
        <path d="M165.06,17.81a7.52,7.52,0,0,1,7.5,7.5h0a7.52,7.52,0,0,1-7.5,7.5"/>
        <path d="M169.17,17.81a7.52,7.52,0,0,1,7.5,7.5h0a7.52,7.52,0,0,1-7.5,7.5"/>
        <path d="M173.28,17.81a7.52,7.52,0,0,1,7.5,7.5h0a7.52,7.52,0,0,1-7.5,7.5"/>
        <path d="M177.39,17.81a7.52,7.52,0,0,1,7.5,7.5h0a7.52,7.52,0,0,1-7.5,7.5"/>
        <path d="M181.5,17.81a7.52,7.52,0,0,1,7.5,7.5h0a7.52,7.52,0,0,1-7.5,7.5"/>

    </g>

</svg>
