<svg x="0px" y="0px" viewBox="0 0 100 50">

<circle cx="50" cy="30.4" r="7.5"/>

<polygon points="18.7,7 15.7,1 12,1 12,5.5 12,13 37,13 37,7"/>
<polygon points="81.3,7 84.3,1 88,1 88,5.5 88,13 63,13 63,7"/>

<polygon points="75,37.5 75,13 25,13 25,37.5 23,49 29,49 31,38 69,38 71,49 77,49 "/>

<rect x="37" y="10.3" width="26" height="2.7"/>

<path d="M44.8,9.4c0,1.7-1.3,3-3,3s-3-1.3-3-3s3-6,3-6S44.8,7.7,44.8,9.4z"/>
<path d="M43.6,10.6c0,1-0.8,1.8-1.8,1.8S40,11.6,40,10.6s1.8-3.6,1.8-3.6S43.6,9.6,43.6,10.6z"/>

<path d="M61.2,9.4c0,1.7-1.3,3-3,3s-3-1.3-3-3s3-6,3-6S61.2,7.7,61.2,9.4z"/>
<path d="M60,10.6c0,1-0.8,1.8-1.8,1.8s-1.8-0.8-1.8-1.8s1.8-3.6,1.8-3.6S60,9.6,60,10.6z"/>

<path d="M53.8,8.6c0,2.1-1.7,3.8-3.8,3.8s-3.8-1.7-3.8-3.8S50,1.8,50,1.8S53.8,6.5,53.8,8.6z"/>
<path d="M52.3,10.1c0,1.2-1,2.3-2.3,2.3s-2.3-1-2.3-2.3S50,5.6,50,5.6S52.3,8.9,52.3,10.1z"/>

</svg>
