<svg x="0px" y="0px" viewBox="0 0 100 50">
<path d="M24.6,13h2c0-1.5,2.3-5.2,2.3-5.2s2.3,3.8,2.3,5.2h2.4c0-1.5,2.3-5.2,2.3-5.2s2.3,3.8,2.3,5.2h2.4
	c0-1.5,2.3-5.2,2.3-5.2s2.3,3.8,2.3,5.2h2.4c0-1.5,2.3-5.2,2.3-5.2s2.3,3.8,2.3,5.2h2.4c0-1.5,2.3-5.2,2.3-5.2s2.3,3.8,2.3,5.2h2.4
	c0-1.5,2.3-5.2,2.3-5.2s2.3,3.8,2.3,5.2h2.4c0-1.5,2.3-5.2,2.3-5.2s2.3,3.8,2.3,5.2h2c0-6-4.3-13-4.3-13s-2.5,3.2-3.5,6.8
	C66.7,3.1,64.1,0,64.1,0s-2.5,3-3.5,6.8C59.6,2.9,57,0,57,0s-2.5,3-3.5,6.8C52.7,3,50,0,50,0s-2.3,3-3.5,6.8C45.5,3,43,0,43,0
	s-2.3,3-3.5,6.8C38.2,3,35.9,0,35.9,0s-2.4,2.4-3.5,6.8C31.3,2.3,28.9,0,28.9,0S24.6,5.6,24.6,13z"/>
</svg>