<svg x="0px" y="0px" viewBox="0 0 100 50">
<path d="M74.5,13h-1c0-1.4-2.3-5.2-2.3-5.2s-2.3,3.7-2.3,5.2h-2.4c0-1.4-2.3-5.2-2.3-5.2s-2.3,3.7-2.3,5.2h-2.4
	c0-1.4-2.3-5.2-2.3-5.2s-2.3,3.7-2.3,5.2h-2.4c0-1.4-2.3-5.2-2.3-5.2s-2.3,3.7-2.3,5.2h-2.4c0-1.4-2.3-5.2-2.3-5.2s-2.3,3.7-2.3,5.2
	h-2.4c0-1.4-2.3-5.2-2.3-5.2s-2.3,3.7-2.3,5.2h-2.4c0-1.4-2.3-5.2-2.3-5.2s-2.3,3.7-2.3,5.2h-1c1.1-5.2,3.3-7.8,3.3-7.8
	s2.7,2.7,3.5,7.1c0.3-3.4,3.5-7.1,3.5-7.1s2.9,2.9,3.5,7.1C40.3,8,43,5.2,43,5.2s2.6,3,3.5,7.1C47.2,8.4,50,5.2,50,5.2
	s3,3.4,3.5,7.1C54.3,7.6,57,5.2,57,5.2s3,3.1,3.5,7.1c0.8-4.4,3.5-7.1,3.5-7.1s2.7,2.5,3.5,7.1c1.2-5.3,3.5-7.1,3.5-7.1
	S73.8,7.9,74.5,13z"/>
	</svg>